<?xml version="1.0" encoding="UTF-8"?><svg id="Layer_2" xmlns="http://www.w3.org/2000/svg" viewBox="0 0 2333.12 240.99"><g id="Layer_1-2"><path d="m0,210.36l16.03-19.71c22.04,15.03,53.11,22.38,84.5,22.38,37.07,0,63.79-13.36,63.79-39.08,0-29.39-35.07-33.06-66.47-38.41C25.38,123.85,6.68,107.15,6.68,75.42,6.68,22.65,59.45,7.62,104.54,7.62c31.4,0,63.13,10.02,86.84,23.38l-16.7,19.37c-23.05-12.36-45.09-18.04-70.81-18.04-44.42,0-67.47,15.36-67.47,41.08,0,21.04,15.7,30.39,66.8,37.74,32.06,5.01,91.18,13.03,91.18,62.12,0,38.41-36.41,64.46-94.19,64.46-42.08,0-81.83-15.03-100.2-27.39Z" fill="#ffffff"/><path d="m326.41,8.98h27.12v227.75h-27.12V8.98Z" fill="#ffffff"/><path d="m484.03,8.98h27.27v202.92h152.19v24.83h-179.46V8.98Z" fill="#ffffff"/><path d="m805.26,8.98v227.75h-27.27V8.98h27.27Zm139.55,227.75h-34.43l-105.12-114.71,104.51-113.04h33.67l-105.42,112.28,106.79,115.48Z" fill="#ffffff"/><path d="m1219.28,120.5c0-66.37,59.02-120.5,132.19-120.5,24.75,0,49.23,6.53,70.45,18.77l-14.14,20.13c-16.87-9.79-36.18-14.69-56.3-14.69-58.48,0-106.08,42.98-106.08,96.29s47.6,96.29,106.08,96.29c20.13,0,39.44-4.9,56.3-14.69l14.14,20.13c-21.22,12.24-45.7,18.77-70.45,18.77-73.17,0-132.19-54.13-132.19-120.5Z" fill="#ffffff"/><path d="m1485.29,120.77c0-65.82,59.02-119.68,131.38-119.68s132.19,53.86,132.19,119.68-59.03,120.23-132.19,120.23-131.38-53.86-131.38-120.23Zm237.19,0c0-52.77-47.06-96.02-105.81-96.02s-105.27,43.25-105.27,96.02,47.33,96.02,105.27,96.02,105.81-42.98,105.81-96.02Z" style="fill: #fff"/><path xmlns="http://www.w3.org/2000/svg" d="m1825.56,11.34h119.96c31.28.54,54.94,7.62,69.9,21.76,13.87,11.97,20.67,29.1,20.67,50.32s-6.8,38.08-20.13,50.32c-6.8,5.98-15.23,10.61-24.48,14.14l45.7,90.85h-29.1l-42.43-84.59c-6.53.82-13.05,1.36-20.13,1.36h-93.57v83.23h-26.38V11.34Zm119.68,120.22c57.67-1.09,64.46-28.02,64.46-48.14s-6.8-47.06-65.01-48.42h-92.75v96.56h93.3Z" fill="white"/><path d="m2122.58,11.34h119.95c31.28.54,54.95,7.62,69.91,21.76,13.87,12.51,20.67,29.1,20.67,50.32s-6.8,38.08-20.13,50.32c-15.5,13.87-39.17,21.22-70.45,21.76h-93.57v83.23h-26.38V11.34Zm119.68,120.22c57.66-1.09,64.46-28.02,64.46-48.14s-6.8-47.06-65.01-48.42h-92.75v96.56h93.3Z" fill="white"/></g></svg>